PathFileType	4	(X/Y/Z)	Kaydara	
DataRate	CameraRate	NumFrames	NumMarkers	Units	OrigDataRate	OrigDataStartFrame	OrigNumFrames	
240.00	240.00	4	72	mm	240.00	311	355	
Frame#	Time	Hips			RightUpLeg			RightLeg			RightFoot			RightFoot_End			LeftUpLeg			LeftLeg			LeftFoot			LeftFoot_End			Spine			Spine1			Spine2			Spine3			Neck			Head			Head_End			RightShoulder			RightArm			RightForeArm			RightHand			RightHandThumb1			RightHandThumb2			RightHandThumb3			RightHandThumb3_End			RightInHandIndex			RightHandIndex1			RightHandIndex2			RightHandIndex3			RightHandIndex3_End			RightInHandMiddle			RightHandMiddle1			RightHandMiddle2			RightHandMiddle3			RightHandMiddle3_End			RightInHandRing			RightHandRing1			RightHandRing2			RightHandRing3			RightHandRing3_End			RightInHandPinky			RightHandPinky1			RightHandPinky2			RightHandPinky3			RightHandPinky3_End			LeftShoulder			LeftArm			LeftForeArm			LeftHand			LeftHandThumb1			LeftHandThumb2			LeftHandThumb3			LeftHandThumb3_End			LeftInHandIndex			LeftHandIndex1			LeftHandIndex2			LeftHandIndex3			LeftHandIndex3_End			LeftInHandMiddle			LeftHandMiddle1			LeftHandMiddle2			LeftHandMiddle3			LeftHandMiddle3_End			LeftInHandRing			LeftHandRing1			LeftHandRing2			LeftHandRing3			LeftHandRing3_End			LeftInHandPinky			LeftHandPinky1			LeftHandPinky2			LeftHandPinky3			LeftHandPinky3_End			
		X1	Y1	Z1	X2	Y2	Z2	X3	Y3	Z3	X4	Y4	Z4	X5	Y5	Z5	X6	Y6	Z6	X7	Y7	Z7	X8	Y8	Z8	X9	Y9	Z9	X10	Y10	Z10	X11	Y11	Z11	X12	Y12	Z12	X13	Y13	Z13	X14	Y14	Z14	X15	Y15	Z15	X16	Y16	Z16	X17	Y17	Z17	X18	Y18	Z18	X19	Y19	Z19	X20	Y20	Z20	X21	Y21	Z21	X22	Y22	Z22	X23	Y23	Z23	X24	Y24	Z24	X25	Y25	Z25	X26	Y26	Z26	X27	Y27	Z27	X28	Y28	Z28	X29	Y29	Z29	X30	Y30	Z30	X31	Y31	Z31	X32	Y32	Z32	X33	Y33	Z33	X34	Y34	Z34	X35	Y35	Z35	X36	Y36	Z36	X37	Y37	Z37	X38	Y38	Z38	X39	Y39	Z39	X40	Y40	Z40	X41	Y41	Z41	X42	Y42	Z42	X43	Y43	Z43	X44	Y44	Z44	X45	Y45	Z45	X46	Y46	Z46	X47	Y47	Z47	X48	Y48	Z48	X49	Y49	Z49	X50	Y50	Z50	X51	Y51	Z51	X52	Y52	Z52	X53	Y53	Z53	X54	Y54	Z54	X55	Y55	Z55	X56	Y56	Z56	X57	Y57	Z57	X58	Y58	Z58	X59	Y59	Z59	X60	Y60	Z60	X61	Y61	Z61	X62	Y62	Z62	X63	Y63	Z63	X64	Y64	Z64	X65	Y65	Z65	X66	Y66	Z66	X67	Y67	Z67	X68	Y68	Z68	X69	Y69	Z69	X70	Y70	Z70	X71	Y71	Z71	X72	Y72	Z72	

311	1.292	2921.0129	906.651	56.2195	2917.389087881894	858.3715468422058	-21.288302302062878	2851.7913509119066	447.7702260020781	-67.6633288036452	2962.3140799998077	95.69842513000953	-194.92713265842116	2890.5133244160747	14.658463793530325	-37.416867268047206	2930.653309872052	925.9876662887258	145.95968841341562	2880.04921393146	526.3657400661228	260.00083203169885	2782.371173492704	96.65170022240271	290.1367655207719	2666.5380641773054	3.867696655309374	169.81569300443797	2893.7574752197884	1036.9697692950654	3.9877008638111278	2843.4390588778797	1110.7022779308195	-34.292639472052535	2784.712316502562	1182.8693384022422	-73.36942541013326	2719.279978837569	1244.0411514033542	-109.26704618253476	2648.672701071133	1308.9018799037256	-147.0092011529135	2583.963917353525	1368.340504508946	-180.0961023597106	2458.4537513771566	1460.658904600921	-211.24445404402326	2667.182140280028	1269.6158353143305	-154.11185522178738	2633.7437489027	1205.921010365372	-197.54006449358414	2645.6397672623307	1081.1006217841348	-51.920441239333854	2604.0691189727877	1060.0465105076255	27.590652352799093	2615.4011408745073	1081.7775716158706	17.09118998111807	2617.987896266476	1082.352394165957	21.50285294299288	2618.328832753436	1079.903910143218	27.06732527196795	2617.363658955386	1075.4256465583492	33.83818608505855	2611.784383667968	1075.1018058969844	24.236458984348573	2615.650874295327	1080.8628916194477	31.92849199782001	2615.2489992277347	1076.6322262466986	41.689519377700805	2614.1912952075054	1071.3527281151653	47.5505902330829	2612.770908215359	1065.1958596654201	52.26193379402301	2607.530550445695	1066.7613879470375	30.95660953422388	2609.001791773665	1067.8715912970636	42.09286020951437	2607.9855743493895	1062.1256158407796	53.6113478166187	2606.4322733070753	1055.2140878450234	61.098688758713166	2604.7433533744384	1048.213858948127	66.4560654724767	2604.4491762714315	1060.7880552779343	35.48116705994961	2603.1590319318093	1056.791394726072	49.31030548004449	2601.6802703502926	1050.6262595285536	60.21903947631846	2599.867059853906	1043.3451412295474	67.90275978850427	2598.1298060985137	1036.472013884879	73.15877816351946	2600.607482228356	1053.2151388689986	40.68532481222065	2597.1329428234126	1045.1047147163385	56.489770235042045	2595.0290797924517	1038.3799073841374	66.52099314007825	2593.2616107549065	1032.2041215153752	72.75240417994485	2591.4666408576513	1025.6178784142105	77.76915701783658	2677.926310374765	1306.2172070535464	-114.29483534641153	2717.2465416906316	1350.7920680992834	-30.615344436011018	2759.3323474695717	1132.9971612292027	-13.886650974078554	2665.9457225929136	994.5210949763226	49.42916028579621	2661.33391775052	1014.9620290438884	49.75774108161127	2664.343343149816	1013.6268478091034	55.44169545935513	2668.447140493937	1009.0710153583469	59.95758277256036	2673.586113191849	1002.1710569593255	64.19927722171968	2667.9647724518636	1005.1425629998022	51.44394898919201	2679.1233876349543	1002.2806755393153	58.07570056689057	2687.65932264018	993.3269609744507	64.52137783744922	2690.8875232892215	987.1147024586703	68.56468983187544	2692.1574354252216	981.5372511496938	71.93564304154792	2673.0745368585	995.0490902340512	52.81666639754752	2686.7219696104557	986.8001049525186	60.02705998598754	2696.675361534102	975.6985982158874	67.22247628932337	2700.8766952992587	967.5649186532513	72.17827531001493	2702.415271896876	961.1516181187759	75.90447806388671	2676.407359024206	988.0375005011335	53.60363467827319	2691.5533176281683	974.6940049499333	60.70887418158043	2700.860257122185	963.6697313548408	67.13469377288905	2705.248147055879	955.1081995053952	71.99688209228772	2706.8537172450447	948.7388069331679	75.53927356392639	2679.8660819884094	979.6734881816307	54.425851271506424	2695.9190067335585	962.4333747181771	61.40605748846804	2704.2907915838405	951.5601050680829	66.76140693930675	2707.935958099428	944.325842759402	70.40938914352269	2709.6141143064347	938.1141588336427	73.6057746117661
312	1.296	2921.0129	906.651	56.2195	2917.0303713458247	858.2276519977887	-21.383917182688567	2851.4690128195734	447.5878328369051	-67.52901289431804	2962.4710214682264	95.67626347183577	-195.0740531226874	2890.7042995298207	14.607514713628918	-37.562624373158584	2930.9995165618666	926.1315253290014	146.0617759600927	2880.459445798765	526.5419348648657	260.2427742942665	2782.4540099354276	96.85659473228444	290.186887017755	2666.706745574128	3.9929017327354486	169.83624447907442	2893.822607233993	1036.9748917191412	3.9636419807409173	2843.4760122425046	1110.7297202279933	-34.2448293073971	2784.7110521957275	1182.9267515018505	-73.22162639814762	2719.2306597433894	1244.1414111278234	-108.98120994910995	2648.572002145102	1309.0460474098354	-146.5751242787352	2583.8229262079867	1368.529803868168	-179.5234686123598	2458.2955515969934	1460.8837767337639	-210.50412966650887	2666.948640514874	1269.6495161261644	-153.70878593075216	2633.02839512945	1205.589334743724	-196.8116951704352	2644.9654473462338	1081.7792686441112	-50.12905806903663	2603.4085038081503	1061.5114463830894	30.710917038768915	2614.810259374999	1083.3395845626046	20.256702251805933	2617.544496732531	1083.921850585859	24.722138949153326	2617.982244726743	1081.473770329878	30.33304574888025	2617.092735565857	1076.9917542528979	37.150304280760935	2611.1699542281935	1076.664836017988	27.441518732430424	2615.123339156745	1082.5180650858852	35.282699828633405	2614.8290127311584	1078.302137771814	45.13052919143479	2613.862072501593	1073.0014380191008	51.01734526836256	2612.5329330790582	1066.8065401638153	55.73096343582227	2606.8993005229513	1068.3058635981251	34.18011253527827	2608.446184450664	1069.495917573032	45.471818812985056	2607.544880664439	1063.763215310337	57.08695327180803	2606.0999111191786	1056.8247614058748	64.6062812918739	2604.510262296505	1049.7822646470793	69.96659546088598	2603.8033254711977	1062.3175583441598	38.71415599371567	2602.5668368595802	1058.3808933196174	52.69161115693445	2601.1856256399683	1052.2243253306565	63.686305343505964	2599.4755230436513	1044.9156392711886	71.4017946750508	2597.8309516011764	1038.0020152311658	76.66100933575989	2599.946219163713	1054.7208680841093	43.922869200123436	2596.5097445607735	1046.6524833772642	59.86708107152802	2594.4796928689534	1039.9295871544546	69.9691795815736	2592.785350464723	1033.7312995725547	76.22475001351015	2591.071284632214	1027.107804807179	81.24490147505432	2678.000372194235	1306.4452588297183	-113.93387629189839	2717.8673296956204	1351.5569155541114	-30.31422281282643	2759.0963129909223	1133.1371364132788	-13.113962446127987	2664.562044556564	994.7954388219312	51.33007135210704	2660.043084540147	1015.337428344385	51.75087212870335	2663.1205047789376	1014.1174196192416	57.634466777836764	2667.278696317998	1009.6333888899883	62.292649720349125	2672.469041405532	1002.786101745611	66.65576430329074	2666.7144804353675	1005.494491653675	53.44909670702247	2678.0737355730753	1002.7313540653697	60.28758325509513	2686.7131135917493	993.8603495641779	66.92068174261149	2689.9644576151068	987.706373944825	71.0857175164081	2691.2257563320127	982.1817909335886	74.56093255595428	2671.8346989311062	995.3753923407354	54.8255721767126	2685.6834954305496	987.2088588861852	62.239629768820755	2695.7504471803522	976.1939206758476	69.63943976969398	2699.9800300640773	968.1287890828739	74.74203667636311	2701.5093406534306	961.7724762852455	78.5822920555525	2675.170240577471	988.3429994262588	55.609539938950306	2690.500348175828	975.0548197703913	62.893587978481506	2699.9066425819674	964.1021058480967	69.49711829830545	2704.3219805254403	955.6046260910653	74.50067100284289	2705.9189337141624	949.287836482476	78.15018995520985	2678.6227135132754	979.9535466003239	56.42530104993536	2694.8422710797795	962.7479215977096	63.564321380126145	2703.293396123526	951.9256403953698	69.0605117823792	2706.9584773540137	944.7350431438966	72.81089855994671	2708.6289388052533	938.5681988880651	76.10177466103025
313	1.3	2921.0129	906.651	56.2195	2916.6805470529075	858.0854651620346	-21.480248609486626	2851.1658948241597	447.40536937308815	-67.3943538509347	2962.6402631967003	95.651782723396	-195.21813101117093	2890.90612962804	14.554681216517663	-37.70596471224044	2931.33704972113	926.2737120811759	146.1645383529432	2880.871490110266	526.7159025356416	260.48765382057707	2782.5218269568204	97.064092548051	290.2472267142862	2666.857498028346	4.123953120738255	169.86722034840594	2893.886509849962	1036.9797821196482	3.939740028882698	2843.5075383552376	1110.7488219887782	-34.20776887511107	2784.6995433213415	1182.9654727391464	-73.09825866663002	2719.166066557002	1244.2103682140425	-108.73645545132536	2648.450861670474	1309.147139624722	-146.1971060696424	2583.659529018631	1368.6707402346588	-179.01657315856403	2458.110746771225	1461.0734609506965	-209.7693902208126	2666.6977881586154	1269.6394999930442	-153.35311826704051	2632.286403104875	1205.195786861256	-196.12879403844636	2644.230855543783	1082.3415076104543	-48.42308502814934	2602.583438930282	1062.700437154616	33.6245111738565	2614.0594362511097	1084.6152264528807	23.210496502200836	2616.9312388380135	1085.185824906921	27.72789479096589	2617.457130835822	1082.7255579106213	33.38540746825677	2616.634553613436	1078.2299076858667	40.250432666802986	2610.3906104032726	1077.9440713404636	30.43962605811964	2614.4196245143057	1083.8759625205637	38.434446943144195	2614.2200484893765	1079.6602753108918	48.37171837348083	2613.3355026848917	1074.3270132532746	54.28413854698826	2612.0904050861227	1068.083099165302	58.99871199476073	2606.0985015244914	1069.5687242439017	37.200381925832104	2607.707534917651	1070.826660092212	48.65393664129395	2606.906598311058	1065.0917359073915	60.36907438552427	2605.5595840201004	1058.112805542797	67.92044726332739	2604.0611859712562	1051.0160953914324	73.2823663788327	2602.9849751948104	1063.5673844963574	41.74643930785414	2601.7875958122218	1059.681828743803	55.88017933309507	2600.4906829299225	1053.5206726753156	66.96423509116786	2598.8733750743954	1046.1715344433142	74.71180182011977	2597.3138006667523	1039.2062698063612	79.97307942428752	2599.1090941666753	1055.9491195256114	46.96237200466753	2595.6953887988975	1047.9161563217451	63.05535310180908	2593.7277056204784	1041.18522193471	73.23175820173991	2592.098565375646	1034.9553174885805	79.51205519988741	2590.4583642976736	1028.2848624978005	84.53479842670225	2678.0542951974553	1306.6388013653923	-113.62788393522482	2718.458794821192	1352.2859514974405	-30.0596024868898	2758.894722652802	1133.2605266266498	-12.376177935787414	2663.224992477479	995.0520084703143	53.23314667470772	2658.7898415933582	1015.7023441095912	53.76315342577024	2661.933411268225	1014.5844756010544	59.8488279641733	2666.1477548417206	1010.1627738801452	64.6484769438237	2671.3935413649633	1003.3599214278715	69.130157233249	2665.5120493234863	1005.8372566383763	55.466782951487865	2677.0842922831766	1003.1755725477789	62.51461196018278	2685.834686761433	994.3780813841573	69.33217400493811	2689.109885937037	988.2707037486774	73.6163326829534	2690.3604644693833	982.7852920582767	77.19314278986802	2670.65052054119	995.6908301748289	56.83982213628316	2684.7169431045436	987.6084691723511	64.45619678336708	2694.906706547813	976.6698169367331	72.05620959591899	2699.1658711836076	968.6590174216175	77.30200409278143	2700.683840878629	962.3446480332066	81.25316931405301	2673.9940089372594	988.6364740520721	57.61567254504218	2689.527473285403	975.4044686655675	65.07297503960532	2699.0421699324197	964.5140957543238	71.84958007891039	2703.4867636593513	956.0668195297237	76.99050210406072	2705.073396390635	949.7884229639384	80.74394615034295	2677.4456413771163	980.2192956763652	58.41874959389503	2693.8528972845597	963.047908907212	65.70775966044668	2702.392057983278	952.2688298896179	71.33956871626805	2706.079074076296	945.1116007092915	75.1887155679056	2707.7407356037716	938.9768958654681	78.57082527004619
314	1.304	2921.0129	906.651	56.2195	2916.337215673979	857.9449232105301	-21.576859600815357	2850.881357956816	447.22329614867584	-67.26527041139593	2962.821361258279	95.62425359303046	-195.3621634493311	2891.1175878441277	14.499566879654177	-37.84986541454138	2931.668415408249	926.4142665713035	146.2674455131409	2881.2861568888165	526.8870237405555	260.73221857021383	2782.5828031147603	97.27151700495119	290.31143490016285	2666.9983668763657	4.257741421813012	169.90272369024962	2893.948779409541	1036.984549565906	3.916412243155788	2843.5344996609515	1110.760703687908	-34.18067399842178	2784.680031572723	1182.9877916581966	-72.9982970990658	2719.0896003739877	1244.2513765904002	-108.53173715951154	2648.3138966200813	1309.2093303105944	-145.8746856314157	2583.4787431388722	1368.7670341504904	-178.57634709926816	2457.904991859201	1461.227548844798	-209.05728244380202	2666.4351190875395	1269.590471166782	-153.04598199862687	2631.5227343204574	1204.7473198457972	-195.49192861303362	2643.455510517135	1082.7961072490452	-46.802221294989494	2601.6134809944574	1063.6657141204253	36.36105860705403	2613.1662261222396	1085.6589897791464	25.982800541585537	2616.1643947415737	1086.2029010234942	30.55418025252216	2616.7690010004835	1083.7209248333368	36.261129588453635	2616.0040995529966	1079.204503735977	43.17749958462555	2609.4641290505024	1078.9949286465778	33.26070791238223	2613.5555470126487	1084.9979740242954	41.41548921594585	2613.4368972301227	1080.7725473795444	51.447841965709834	2612.6259697834257	1075.3977281294096	57.38840284914315	2611.457527504974	1069.09547011742	62.105377127437905	2605.146370616734	1070.6057911146163	40.04733800973483	2606.802386464319	1071.9256850599038	51.67091377566204	2606.0862160104916	1066.1780087594202	63.492679255933076	2604.8263211938925	1059.147922122359	71.07938306560946	2603.4109710158937	1051.98687656756	76.44459888159494	2602.012700778356	1064.5934873132478	44.607868644333244	2600.838686206418	1060.7556837878526	58.9073467095735	2599.61196937464	1054.581137464395	70.0870065106666	2598.0767364984313	1047.1814454349721	77.87006907842095	2596.5943195984687	1040.155117247458	83.13511798375355	2598.1151755774026	1056.9558344578516	49.83368849301196	2594.708138357946	1048.956737038291	66.08574883245282	2592.7908129515527	1042.211317044718	76.34214855285157	2591.21870838594	1035.9427180837984	82.64999913846464	2589.6452275045817	1029.2171232368548	87.67703958053076	2678.0909369393758	1306.8009580547146	-113.37428890800898	2719.0254194638756	1352.9824234309485	-29.850521032819607	2758.7768319833513	1133.3975146987095	-11.654233516657317	2661.984673280664	995.3212949946673	55.1519775787792	2657.623520885428	1016.0868669440786	55.80789544788454	2660.8306326260426	1015.0603035908956	62.09894520839404	2665.102079151409	1010.6932108870402	67.04006783579035	2670.406466898904	1003.9282078426859	71.63836370265903	2664.405634396956	1006.201515489277	57.511122227306416	2676.199702261717	1003.6459070158661	64.7727472736999	2685.0668565337533	994.915102306799	71.7732868339341	2688.3663189189074	988.8443489792338	76.1746452552827	2689.6043817806076	983.3859885902897	79.85078457893366	2669.5695565304845	996.0266486427378	58.87413158718195	2683.8661181597604	988.0323693814819	66.69360187776178	2694.1858810929307	977.1623791631949	74.49130590021456	2698.4755615266513	969.1937952078589	79.87755058003647	2699.980440465562	962.9080672886219	83.93693874326739	2672.92587556806	988.9495267084952	59.63712522373882	2688.678220692324	975.7768002750561	67.26436072507714	2698.3085053429536	964.9419377831068	74.21093994854334	2702.7837449521135	956.5330791728351	79.48609707400155	2704.358643578451	950.2805218295326	83.34071052902999	2676.3818517814007	980.5027623467236	60.421670758511205	2692.9943236135387	963.3676572128887	67.85412970124786	2701.628643263232	952.6260070909051	73.61766693214209	2705.339270310962	945.493402261901	77.56260672824246	2706.9912607984043	939.379631658793	81.0331171286124
